<?xml version="1.0" encoding="utf-8"?>
<!-- Generator: Adobe Illustrator 27.5.0, SVG Export Plug-In . SVG Version: 6.00 Build 0)  -->
<svg version="1.1" id="BASE" xmlns="http://www.w3.org/2000/svg" xmlns:xlink="http://www.w3.org/1999/xlink" x="0px" y="0px"
	 viewBox="0 0 1898 2372" style="enable-background:new 0 0 1898 2372;" xml:space="preserve">
<g>
	<path style="fill:#F6E0D3;" d="M1722.846,493.309c-0.007-185.119-346.613-335.187-774.173-335.187
		c-427.565,0-774.174,150.07-774.174,335.192c0,15.216,2.342,30.195,6.878,44.874l220.468,1438.647
		c0,130.759,244.821,236.76,546.826,236.76c159.022,0,302.179-29.392,402.098-76.311c0.085-0.04,0.17-0.08,0.256-0.12
		c0.821-0.385,1.638-0.772,2.453-1.161c0.134-0.065,0.271-0.129,0.406-0.193c0.912-0.435,1.819-0.871,2.724-1.309
		c0.012-0.006,0.025-0.012,0.037-0.018c0.922-0.447,1.841-0.896,2.755-1.347c0.113-0.054,0.225-0.11,0.336-0.165
		c0.82-0.404,1.636-0.81,2.45-1.217c0.147-0.073,0.293-0.146,0.438-0.219c0.926-0.464,1.85-0.929,2.767-1.396
		c0.125-0.064,0.252-0.128,0.377-0.192c0.821-0.418,1.638-0.839,2.453-1.26c0.157-0.081,0.313-0.162,0.47-0.243
		c0.933-0.483,1.861-0.968,2.784-1.455c0.143-0.076,0.286-0.152,0.431-0.227c0.889-0.47,1.774-0.942,2.655-1.414
		c0.026-0.014,0.052-0.027,0.078-0.041l0.01-0.005c0.013-0.008,0.027-0.015,0.041-0.022c0.064-0.034,0.127-0.068,0.191-0.102
		c0.157-0.084,0.313-0.168,0.471-0.254c0.117-0.063,0.252-0.135,0.369-0.199c0.05-0.027,0.104-0.056,0.154-0.084
		c0.152-0.083,0.302-0.165,0.455-0.248c0.293-0.159,0.586-0.317,0.879-0.477c0.419-0.228,0.836-0.457,1.254-0.687
		c0.188-0.104,0.377-0.207,0.566-0.311c0.237-0.131,0.471-0.262,0.708-0.393c0.111-0.062,0.223-0.124,0.335-0.186
		c0.252-0.139,0.505-0.28,0.756-0.419l0.074-0.041c71.83-40.054,114.601-90.371,114.601-145.019l220.49-1438.751
		c4.513-14.628,6.844-29.555,6.852-44.717l0.013-0.084H1722.846z"/>
	<path style="fill:#FDE7D8;" d="M948.673,158.122c-427.565,0-774.174,150.07-774.174,335.192c0,15.216,2.342,30.195,6.878,44.874
		c50.648,163.904,374.875,290.319,767.296,290.319c109.06,0,212.852-9.765,306.969-27.384c-4.61,54.125-9.654,113.29-14.985,175.731
		c-0.003,0.001-0.004,0.001-0.006,0.001l-0.009,0.103c-42.508,13.773-84.371,30.38-125.952,47.911
		c-11.845-0.056-23.679-0.313-35.474-1.294c-151.592-12.608-270.762-135.002-416.1-179.893
		c-56.16-17.346-116.486-25.17-175.065-18.391c-29.082,3.366-57.88,10.548-84.517,22.839c-25.725,11.871-51.855,27.449-70.351,49.16
		c-14.799,17.369-25.646,38.141-31.117,60.312c-3.648,14.785-4.813,30.46-1.998,45.493c0.097,0.519,0.245,1.02,0.354,1.534
		l6.211,40.556l18.854,122.937l111.165,725.416l5.691,37.136h0.019c0.004,15.836,3.889,31.279,11.26,46.161
		c48.982,98.892,252.018,173.031,495.051,173.031c67.603,0,132.094-5.751,191.052-16.161c-3.848,40.569-6.323,64.279-7.005,66.102
		c91.174-14.092,171.164-38.367,232.671-69.667c0.125-0.064,0.252-0.128,0.377-0.192c0.821-0.418,1.638-0.839,2.453-1.26
		c0.157-0.081,0.313-0.162,0.47-0.243c0.933-0.483,1.861-0.968,2.784-1.455c0.143-0.076,0.286-0.152,0.431-0.227
		c0.889-0.47,1.774-0.942,2.655-1.414c0.026-0.014,0.052-0.027,0.078-0.041l0.01-0.005c0.013-0.008,0.027-0.015,0.041-0.022
		c0.064-0.034,0.127-0.068,0.191-0.102c0.157-0.084,0.313-0.168,0.471-0.254c0.117-0.063,0.252-0.135,0.369-0.199
		c0.05-0.027,0.104-0.056,0.154-0.084c0.139-0.075,0.277-0.15,0.414-0.225c0.343-0.186,0.684-0.372,1.026-0.558
		c0.279-0.152,0.557-0.305,0.834-0.457c0.349-0.191,0.697-0.383,1.045-0.574c0.181-0.1,0.362-0.201,0.543-0.301
		c0.111-0.062,0.223-0.124,0.335-0.186c0.323-0.179,0.647-0.359,0.97-0.539c0.588-0.329,1.175-0.658,1.759-0.988
		c0.218-0.123,0.436-0.247,0.652-0.37c0.418-0.237,0.836-0.474,1.252-0.712c0.249-0.142,0.497-0.285,0.745-0.427
		c0.355-0.204,0.709-0.407,1.063-0.612l0.801-0.464c0.381-0.221,0.763-0.443,1.141-0.666c0.223-0.13,0.445-0.26,0.667-0.39
		c0.402-0.237,0.803-0.473,1.204-0.71c0.209-0.124,0.418-0.248,0.626-0.372c0.499-0.296,0.994-0.592,1.49-0.89
		c0.101-0.061,0.203-0.122,0.304-0.182c0.606-0.365,1.21-0.729,1.812-1.096c0.15-0.091,0.297-0.182,0.447-0.273
		c0.436-0.266,0.871-0.533,1.306-0.8c0.252-0.155,0.503-0.311,0.755-0.466c0.324-0.201,0.648-0.402,0.972-0.604
		c0.268-0.168,0.538-0.336,0.806-0.504c0.353-0.221,0.706-0.443,1.057-0.665c0.199-0.125,0.398-0.25,0.595-0.375
		c0.436-0.276,0.869-0.552,1.3-0.828c0.147-0.094,0.296-0.188,0.443-0.282c1.167-0.749,2.326-1.501,3.474-2.256
		c0.106-0.07,0.211-0.14,0.317-0.21c0.469-0.309,0.936-0.617,1.4-0.927c0.141-0.093,0.279-0.186,0.418-0.28
		c0.447-0.298,0.892-0.597,1.336-0.896c0.133-0.089,0.264-0.179,0.398-0.268c0.429-0.29,0.856-0.581,1.282-0.872
		c0.142-0.097,0.285-0.195,0.428-0.293c0.459-0.314,0.915-0.629,1.37-0.944c0.099-0.068,0.199-0.136,0.297-0.205
		c1.135-0.787,2.26-1.578,3.374-2.372c0.001,0,0.001-0.001,0.001-0.002c0.528-0.376,1.054-0.752,1.577-1.13
		c0.135-0.098,0.27-0.196,0.404-0.293c0.405-0.293,0.808-0.586,1.209-0.88c0.147-0.108,0.296-0.217,0.443-0.324
		c0.413-0.303,0.825-0.607,1.234-0.911c0.106-0.077,0.21-0.155,0.315-0.233c0.474-0.352,0.945-0.704,1.413-1.057
		c0.056-0.041,0.11-0.083,0.166-0.125c1.077-0.811,2.142-1.625,3.197-2.442c0.028-0.023,0.059-0.045,0.087-0.068
		c0.488-0.377,0.973-0.756,1.455-1.135l0.241-0.189c0.433-0.341,0.866-0.684,1.296-1.027c0.098-0.077,0.194-0.154,0.292-0.231
		c0.385-0.308,0.769-0.616,1.152-0.926l0.413-0.332c0.459-0.372,0.914-0.743,1.368-1.115l0.033-0.028
		c1.021-0.838,2.032-1.678,3.029-2.522c0.034-0.029,0.066-0.056,0.1-0.085c0.439-0.371,0.875-0.742,1.309-1.115
		c0.106-0.091,0.211-0.182,0.317-0.273c0.384-0.331,0.768-0.662,1.15-0.994c0.087-0.075,0.174-0.151,0.26-0.226
		c0.391-0.341,0.779-0.682,1.166-1.024c0.092-0.081,0.184-0.162,0.274-0.242c0.427-0.378,0.851-0.756,1.272-1.135
		c0.03-0.027,0.06-0.053,0.09-0.08c1.426-1.281,2.826-2.569,4.2-3.863c0.02-0.019,0.041-0.039,0.061-0.058
		c0.413-0.388,0.822-0.776,1.227-1.165c0.08-0.076,0.159-0.152,0.24-0.229c0.359-0.346,0.719-0.692,1.076-1.04
		c0.08-0.078,0.161-0.155,0.239-0.233c1.761-1.715,3.476-3.441,5.143-5.178c0.032-0.032,0.061-0.063,0.091-0.095
		c0.38-0.395,0.757-0.792,1.13-1.188c0.055-0.056,0.107-0.112,0.161-0.168c0.368-0.392,0.736-0.784,1.1-1.176
		c0.037-0.04,0.074-0.08,0.11-0.12c1.624-1.753,3.202-3.516,4.732-5.29c0.044-0.051,0.087-0.101,0.131-0.152
		c0.343-0.399,0.685-0.799,1.024-1.199c0.037-0.044,0.074-0.088,0.11-0.131c0.344-0.408,0.688-0.817,1.027-1.226
		c0.029-0.036,0.058-0.071,0.088-0.106c1.116-1.344,2.202-2.694,3.261-4.05c0.024-0.031,0.048-0.062,0.073-0.093
		c0.322-0.413,0.643-0.827,0.961-1.241l0.131-0.172c0.294-0.385,0.587-0.771,0.877-1.158c0.056-0.073,0.11-0.146,0.166-0.22
		c0.291-0.391,0.583-0.782,0.87-1.174c0.04-0.055,0.08-0.109,0.12-0.163c0.998-1.36,1.968-2.724,2.909-4.095
		c0.022-0.032,0.045-0.064,0.066-0.097c0.292-0.426,0.582-0.852,0.869-1.279c0.027-0.042,0.055-0.083,0.083-0.125
		c0.271-0.403,0.539-0.807,0.805-1.212c0.047-0.073,0.095-0.145,0.143-0.218c0.256-0.392,0.511-0.784,0.761-1.175
		c0.041-0.063,0.082-0.125,0.121-0.188c0.877-1.371,1.727-2.747,2.548-4.128c0.038-0.063,0.075-0.126,0.111-0.189
		c0.234-0.396,0.467-0.793,0.697-1.189c0.045-0.077,0.089-0.154,0.133-0.231c0.218-0.376,0.433-0.754,0.647-1.131
		c0.053-0.093,0.105-0.188,0.158-0.281c0.219-0.39,0.436-0.779,0.65-1.169c0.035-0.063,0.071-0.126,0.105-0.189
		c0.764-1.395,1.499-2.794,2.206-4.198c0.028-0.056,0.056-0.112,0.083-0.168c0.2-0.398,0.398-0.796,0.591-1.194
		c0.051-0.102,0.1-0.203,0.149-0.304c0.17-0.351,0.339-0.702,0.505-1.054c0.06-0.124,0.119-0.248,0.177-0.373
		c0.166-0.351,0.328-0.702,0.49-1.052c0.049-0.109,0.1-0.218,0.15-0.327c0.206-0.45,0.409-0.901,0.608-1.351
		c0.002-0.001,0.002-0.002,0.002-0.003c0.214-0.482,0.423-0.964,0.629-1.447c0.006-0.012,0.011-0.025,0.016-0.037
		c0.191-0.445,0.376-0.89,0.561-1.335c0.043-0.107,0.087-0.213,0.13-0.319c0.143-0.349,0.285-0.698,0.424-1.048
		c0.053-0.134,0.108-0.268,0.159-0.402c0.136-0.342,0.27-0.684,0.401-1.027c0.048-0.123,0.095-0.247,0.143-0.37
		c0.138-0.36,0.273-0.721,0.406-1.082c0.04-0.105,0.077-0.209,0.115-0.313c0.166-0.451,0.33-0.902,0.489-1.353
		c0.004-0.011,0.007-0.022,0.011-0.034c0.169-0.478,0.335-0.956,0.498-1.435c0.022-0.068,0.045-0.136,0.068-0.204
		c0.13-0.391,0.259-0.78,0.387-1.171c0.045-0.139,0.09-0.279,0.133-0.419c0.105-0.327,0.209-0.654,0.311-0.981
		c0.046-0.15,0.093-0.3,0.139-0.45c0.099-0.328,0.198-0.655,0.296-0.983l0.127-0.431c0.099-0.341,0.198-0.683,0.294-1.025
		c0.036-0.124,0.071-0.248,0.105-0.373c0.121-0.436,0.24-0.872,0.355-1.309c0.008-0.032,0.018-0.063,0.026-0.095
		c0.124-0.471,0.245-0.942,0.362-1.414c0.028-0.11,0.055-0.221,0.082-0.331c0.09-0.365,0.178-0.73,0.264-1.095
		c0.031-0.13,0.06-0.26,0.091-0.391c0.078-0.338,0.155-0.676,0.23-1.015c0.036-0.16,0.071-0.319,0.105-0.479
		c0.068-0.311,0.134-0.621,0.199-0.933c0.032-0.162,0.066-0.325,0.101-0.487c0.068-0.339,0.136-0.679,0.201-1.019
		c0.024-0.128,0.05-0.257,0.074-0.385c0.178-0.939,0.344-1.88,0.497-2.823l0.069-0.445c0.052-0.331,0.104-0.662,0.153-0.993
		c0.024-0.166,0.049-0.333,0.072-0.498c0.042-0.297,0.084-0.595,0.124-0.892c0.026-0.192,0.052-0.384,0.076-0.576
		c0.037-0.296,0.074-0.591,0.109-0.887c0.022-0.173,0.043-0.346,0.063-0.519c0.039-0.34,0.076-0.681,0.112-1.021
		c0.013-0.13,0.028-0.26,0.042-0.391c0.043-0.429,0.082-0.858,0.122-1.287c0.005-0.052,0.01-0.104,0.015-0.157
		c0.041-0.475,0.079-0.95,0.114-1.425c0.008-0.125,0.016-0.25,0.025-0.375c0.026-0.354,0.049-0.707,0.071-1.061
		c0.01-0.164,0.019-0.328,0.027-0.49c0.016-0.304,0.032-0.608,0.046-0.912c0.01-0.194,0.019-0.388,0.026-0.582
		c0.012-0.289,0.023-0.579,0.031-0.869c0.007-0.188,0.014-0.376,0.02-0.564c0.008-0.324,0.015-0.649,0.02-0.973
		c0.003-0.149,0.007-0.299,0.008-0.448c0.007-0.479,0.01-0.957,0.01-1.436l220.475-1438.663c0.007-0.02,0.013-0.041,0.019-0.061
		c4.513-14.628,6.844-29.555,6.852-44.717c0-0.023,0.001-0.046,0.001-0.07v-0.014C1722.839,308.19,1376.233,158.122,948.673,158.122
		z"/>
	<path style="fill:#E5D2C6;" d="M1255.642,801.123c-4.61,54.125-9.654,113.29-14.985,175.731c-0.003,0.001-0.004,0.001-0.006,0.001
		l-0.009,0.103c-42.508,13.773-84.371,30.38-125.952,47.911c-11.845-0.056-23.679-0.313-35.474-1.294
		c-151.592-12.608-270.762-135.002-416.1-179.893c-56.16-17.346-116.486-25.17-175.065-18.391
		c-29.082,3.366-57.88,10.548-84.517,22.839c-25.725,11.871-51.855,27.449-70.351,49.16c-14.799,17.369-25.646,38.141-31.117,60.312
		c-3.648,14.785-4.813,30.46-1.998,45.493c0.097,0.519,0.245,1.02,0.354,1.534l6.211,40.556l18.854,122.937l111.165,725.416
		l5.691,37.136h0.019c0.004,15.836,3.889,31.279,11.26,46.161c48.982,98.892,252.018,173.031,495.051,173.031
		c67.603,0,132.094-5.751,191.052-16.161c-3.848,40.569-6.323,64.279-7.005,66.102c91.174-14.092,171.164-38.367,232.671-69.667
		c0.125-0.064,0.252-0.128,0.377-0.192c0.821-0.418,1.638-0.839,2.453-1.26c0.157-0.081,0.313-0.162,0.47-0.243
		c0.933-0.483,1.861-0.968,2.784-1.455c0.143-0.076,0.286-0.152,0.431-0.227c0.889-0.47,1.774-0.942,2.655-1.414
		c0.026-0.014,0.052-0.027,0.078-0.041l0.01-0.005c0.013-0.008,0.027-0.015,0.041-0.022c0.064-0.034,0.127-0.068,0.191-0.102
		c0.157-0.084,0.313-0.168,0.471-0.254c0.117-0.063,0.252-0.135,0.369-0.199c0.05-0.027,0.104-0.056,0.154-0.084
		c0.139-0.075,0.277-0.15,0.414-0.225c0.343-0.186,0.684-0.372,1.026-0.558c0.279-0.152,0.557-0.305,0.834-0.457
		c0.349-0.191,0.697-0.383,1.045-0.574c0.181-0.1,0.362-0.201,0.543-0.301c0.111-0.062,0.223-0.124,0.335-0.186
		c0.323-0.179,0.647-0.359,0.97-0.539c0.588-0.329,1.175-0.658,1.759-0.988c0.218-0.123,0.436-0.247,0.652-0.37
		c0.418-0.237,0.836-0.474,1.252-0.712c0.249-0.142,0.497-0.285,0.745-0.427c0.355-0.204,0.709-0.407,1.063-0.612l0.801-0.464
		c0.381-0.221,0.763-0.443,1.141-0.666c0.223-0.13,0.445-0.26,0.667-0.39c0.402-0.237,0.803-0.473,1.204-0.71
		c0.209-0.124,0.418-0.248,0.626-0.372c0.499-0.296,0.994-0.592,1.49-0.89c0.101-0.061,0.203-0.122,0.304-0.182
		c0.606-0.365,1.21-0.729,1.812-1.096c0.15-0.091,0.297-0.182,0.447-0.273c0.436-0.266,0.871-0.533,1.306-0.8
		c0.252-0.155,0.503-0.311,0.755-0.466c0.324-0.201,0.648-0.402,0.972-0.604c0.268-0.168,0.538-0.336,0.806-0.504
		c0.353-0.221,0.706-0.443,1.057-0.665c0.199-0.125,0.398-0.25,0.595-0.375c0.436-0.276,0.869-0.552,1.3-0.828
		c0.147-0.094,0.296-0.188,0.443-0.282c1.167-0.749,2.326-1.501,3.474-2.256c0.106-0.07,0.211-0.14,0.317-0.21
		c0.469-0.309,0.936-0.617,1.4-0.927c0.141-0.093,0.279-0.186,0.418-0.28c0.447-0.298,0.892-0.597,1.336-0.896
		c0.133-0.089,0.264-0.179,0.398-0.268c0.429-0.29,0.856-0.581,1.282-0.872c0.142-0.097,0.285-0.195,0.428-0.293
		c0.459-0.314,0.915-0.629,1.37-0.944c0.099-0.068,0.199-0.136,0.297-0.205c1.135-0.787,2.26-1.578,3.374-2.372
		c0.001,0,0.001-0.001,0.001-0.002c0.528-0.376,1.054-0.752,1.577-1.13c0.135-0.098,0.27-0.196,0.404-0.293
		c0.405-0.293,0.808-0.586,1.209-0.88c0.147-0.108,0.296-0.217,0.443-0.324c0.413-0.303,0.825-0.607,1.234-0.911
		c0.106-0.077,0.21-0.155,0.315-0.233c0.474-0.352,0.945-0.704,1.413-1.057c0.056-0.041,0.11-0.083,0.166-0.125
		c1.077-0.811,2.142-1.625,3.197-2.442c0.028-0.023,0.059-0.045,0.087-0.068c0.488-0.377,0.973-0.756,1.455-1.135l0.241-0.189
		c0.433-0.341,0.866-0.684,1.296-1.027c0.098-0.077,0.194-0.154,0.292-0.231c0.385-0.308,0.769-0.616,1.152-0.926l0.413-0.332
		c0.459-0.372,0.914-0.743,1.368-1.115l0.033-0.028c1.021-0.838,2.032-1.678,3.029-2.522c0.034-0.029,0.066-0.056,0.1-0.085
		c0.439-0.371,0.875-0.742,1.309-1.115c0.106-0.091,0.211-0.182,0.317-0.273c0.384-0.331,0.768-0.662,1.15-0.994
		c0.087-0.075,0.174-0.151,0.26-0.226c0.391-0.341,0.779-0.682,1.166-1.024c0.092-0.081,0.184-0.162,0.274-0.242
		c0.427-0.378,0.851-0.756,1.272-1.135c0.03-0.027,0.06-0.053,0.09-0.08c1.426-1.281,2.826-2.569,4.2-3.863
		c0.02-0.019,0.041-0.039,0.061-0.058c0.413-0.388,0.822-0.776,1.227-1.165c0.08-0.076,0.159-0.152,0.24-0.229
		c0.359-0.346,0.719-0.692,1.076-1.04c0.08-0.078,0.161-0.155,0.239-0.233c1.761-1.715,3.476-3.441,5.143-5.178
		c0.032-0.032,0.061-0.063,0.091-0.095c0.38-0.395,0.757-0.792,1.13-1.188c0.055-0.056,0.107-0.112,0.161-0.168
		c0.368-0.392,0.736-0.784,1.1-1.176c0.037-0.04,0.074-0.08,0.11-0.12c1.624-1.753,3.202-3.516,4.732-5.29
		c0.044-0.051,0.087-0.101,0.131-0.152c0.343-0.399,0.685-0.799,1.024-1.199c0.037-0.044,0.074-0.088,0.11-0.131
		c0.344-0.408,0.688-0.817,1.027-1.226c0.029-0.036,0.058-0.071,0.088-0.106c1.116-1.344,2.202-2.694,3.261-4.05
		c0.024-0.031,0.048-0.062,0.073-0.093c0.322-0.413,0.643-0.827,0.961-1.241l0.131-0.172c0.294-0.385,0.587-0.771,0.877-1.158
		c0.056-0.073,0.11-0.146,0.166-0.22c0.291-0.391,0.583-0.782,0.87-1.174c0.04-0.055,0.08-0.109,0.12-0.163
		c0.998-1.36,1.968-2.724,2.909-4.095c0.022-0.032,0.045-0.064,0.066-0.097c0.292-0.426,0.582-0.852,0.869-1.279
		c0.027-0.042,0.055-0.083,0.083-0.125c0.271-0.403,0.539-0.807,0.805-1.212c0.047-0.073,0.095-0.145,0.143-0.218
		c0.256-0.392,0.511-0.784,0.761-1.175c0.041-0.063,0.082-0.125,0.121-0.188c0.877-1.371,1.727-2.747,2.548-4.128
		c0.038-0.063,0.075-0.126,0.111-0.189c0.234-0.396,0.467-0.793,0.697-1.189c0.045-0.077,0.089-0.154,0.133-0.231
		c0.218-0.376,0.433-0.754,0.647-1.131c0.053-0.093,0.105-0.188,0.158-0.281c0.219-0.39,0.436-0.779,0.65-1.169
		c0.035-0.063,0.071-0.126,0.105-0.189c0.764-1.395,1.499-2.794,2.206-4.198c0.028-0.056,0.056-0.112,0.083-0.168
		c0.2-0.398,0.398-0.796,0.591-1.194c0.051-0.102,0.1-0.203,0.149-0.304c0.17-0.351,0.339-0.702,0.505-1.054
		c0.06-0.124,0.119-0.248,0.177-0.373c0.166-0.351,0.328-0.702,0.49-1.052c0.049-0.109,0.1-0.218,0.15-0.327
		c0.206-0.45,0.409-0.901,0.608-1.351c0.002-0.001,0.002-0.002,0.002-0.003c0.214-0.482,0.423-0.964,0.629-1.447
		c0.006-0.012,0.011-0.025,0.016-0.037c0.191-0.445,0.376-0.89,0.561-1.335c0.043-0.107,0.087-0.213,0.13-0.319
		c0.143-0.349,0.285-0.698,0.424-1.048c0.053-0.134,0.108-0.268,0.159-0.402c0.136-0.342,0.27-0.684,0.401-1.027
		c0.048-0.123,0.095-0.247,0.143-0.37c0.138-0.36,0.273-0.721,0.406-1.082c0.04-0.105,0.077-0.209,0.115-0.313
		c0.166-0.451,0.33-0.902,0.489-1.353c0.004-0.011,0.007-0.022,0.011-0.034c0.169-0.478,0.335-0.956,0.498-1.435
		c0.022-0.068,0.045-0.136,0.068-0.204c0.13-0.391,0.259-0.78,0.387-1.171c0.045-0.139,0.09-0.279,0.133-0.419
		c0.105-0.327,0.209-0.654,0.311-0.981c0.046-0.15,0.093-0.3,0.139-0.45c0.099-0.328,0.198-0.655,0.296-0.983l0.127-0.431
		c0.099-0.341,0.198-0.683,0.294-1.025c0.036-0.124,0.071-0.248,0.105-0.373c0.121-0.436,0.24-0.872,0.355-1.309
		c0.008-0.032,0.018-0.063,0.026-0.095c0.124-0.471,0.245-0.942,0.362-1.414c0.028-0.11,0.055-0.221,0.082-0.331
		c0.09-0.365,0.178-0.73,0.264-1.095c0.031-0.13,0.06-0.26,0.091-0.391c0.078-0.338,0.155-0.676,0.23-1.015
		c0.036-0.16,0.071-0.319,0.105-0.479c0.068-0.311,0.134-0.621,0.199-0.933c0.032-0.162,0.066-0.325,0.101-0.487
		c0.068-0.339,0.136-0.679,0.201-1.019c0.024-0.128,0.05-0.257,0.074-0.385c0.178-0.939,0.344-1.88,0.497-2.823l0.069-0.445
		c0.052-0.331,0.104-0.662,0.153-0.993c0.024-0.166,0.049-0.333,0.072-0.498c0.042-0.297,0.084-0.595,0.124-0.892
		c0.026-0.192,0.052-0.384,0.076-0.576c0.037-0.296,0.074-0.591,0.109-0.887c0.022-0.173,0.043-0.346,0.063-0.519
		c0.039-0.34,0.076-0.681,0.112-1.021c0.013-0.13,0.028-0.26,0.042-0.391c0.043-0.429,0.082-0.858,0.122-1.287
		c0.005-0.052,0.01-0.104,0.015-0.157c0.041-0.475,0.079-0.95,0.114-1.425c0.008-0.125,0.016-0.25,0.025-0.375
		c0.026-0.354,0.049-0.707,0.071-1.061c0.01-0.164,0.019-0.328,0.027-0.49c0.016-0.304,0.032-0.608,0.046-0.912
		c0.01-0.194,0.019-0.388,0.026-0.582c0.012-0.289,0.023-0.579,0.031-0.869c0.007-0.188,0.014-0.376,0.02-0.564
		c0.008-0.324,0.015-0.649,0.02-0.973c0.003-0.149,0.007-0.299,0.008-0.448c0.007-0.479,0.01-0.957,0.01-1.436l220.475-1438.663
		C1679.412,656.532,1500.188,755.343,1255.642,801.123z"/>
	<path style="fill:#008AC0;" d="M1297.378,960.512c-9.022,2.259-17.997,4.727-26.95,7.3c-2.176,0.625-4.344,1.296-6.516,1.938
		c-6.071,1.796-12.134,3.63-18.176,5.552c-1.691,0.533-3.391,1.011-5.079,1.552c-0.003,0.001-0.004,0.001-0.006,0.001l-0.009,0.103
		c-42.508,13.773-84.371,30.38-125.952,47.911c-11.845-0.056-23.679-0.313-35.474-1.294
		c-151.592-12.608-270.762-135.002-416.1-179.893c-56.16-17.346-116.486-25.17-175.065-18.391
		c-29.082,3.366-57.88,10.548-84.517,22.839c-25.725,11.871-51.855,27.449-70.351,49.16c-14.799,17.369-25.646,38.141-31.117,60.312
		c-3.648,14.785-4.813,30.46-1.998,45.493c0.097,0.519,0.245,1.02,0.354,1.534l6.211,40.556l18.854,122.937l111.165,725.416
		l5.691,37.136h0.019c0.004,15.836,3.889,31.279,11.26,46.161c48.982,98.892,252.018,173.031,495.051,173.031
		c67.603,0,132.094-5.751,191.052-16.161c0.008-0.001,0.015-0.003,0.023-0.004l-0.002,0.008l0.926-0.172
		c4.065-0.721,8.103-1.466,12.114-2.231c2.673-0.51,5.334-1.031,7.984-1.561c3.974-0.794,7.919-1.611,11.836-2.449
		c0.763-0.163,1.523-0.327,2.283-0.491c1.282-0.277,2.56-0.557,3.835-0.839c2.314-0.511,4.615-1.032,6.907-1.558
		c6.555-1.506,13.023-3.071,19.4-4.695c0.85-0.217,1.698-0.433,2.545-0.651c9.717-2.509,19.22-5.155,28.502-7.931
		c0.858-0.257,1.715-0.513,2.568-0.771c4.613-1.398,9.183-2.821,13.681-4.283l0.571-0.189c1.612-0.525,3.215-1.056,4.81-1.591
		s3.181-1.074,4.761-1.616c1.052-0.362,2.104-0.725,3.151-1.089c0.801-0.278,1.603-0.556,2.4-0.837
		c2.449-0.862,4.881-1.732,7.293-2.613c0.805-0.293,1.607-0.588,2.406-0.884c1.066-0.394,2.129-0.79,3.185-1.189l0.848-0.326
		c3.979-1.506,7.893-3.043,11.762-4.602c0.708-0.286,1.422-0.57,2.126-0.857c4.088-1.667,8.12-3.357,12.079-5.082l1.012-0.448
		c3.681-1.612,7.297-3.251,10.862-4.912c0.614-0.286,1.232-0.57,1.844-0.858c3.809-1.793,7.555-3.611,11.226-5.458l1.093-0.56
		c1.277-0.647,2.544-1.297,3.802-1.951c1.26-0.654,2.508-1.311,3.75-1.97c0.828-0.44,1.653-0.882,2.473-1.325l1.494-0.802
		c3.517-1.917,6.967-3.859,10.339-5.827l1.141-0.677c3.096-1.822,6.126-3.666,9.093-5.53l1.271-0.793
		c3.189-2.023,6.302-4.071,9.339-6.142l1.171-0.812c1.385-0.954,2.754-1.914,4.106-2.878c1.352-0.964,2.688-1.933,4.007-2.907
		l1.072-0.784c0.707-0.528,1.41-1.056,2.107-1.587c1.394-1.061,2.77-2.128,4.125-3.2c0.677-0.536,1.349-1.073,2.018-1.612
		l1.239-1.017c2.406-1.965,4.747-3.947,7.017-5.947l0.937-0.816c0.613-0.546,1.22-1.093,1.823-1.641
		c1.204-1.098,2.387-2.2,3.55-3.307c0.581-0.553,1.159-1.108,1.731-1.664l1.234-1.222c2.033-2.007,4.002-4.03,5.899-6.068
		l0.833-0.884c2.049-2.23,4.002-4.481,5.886-6.747c0.418-0.503,0.821-1.009,1.231-1.513c0.818-1.007,1.619-2.016,2.405-3.03
		c0.786-1.013,1.555-2.029,2.306-3.049l0.754-1.005c0.409-0.564,0.812-1.13,1.208-1.697c1.19-1.701,2.33-3.411,3.43-5.129
		c0.391-0.608,0.765-1.218,1.143-1.828c1.233-1.989,2.408-3.987,3.514-5.998l0.679-1.205c0.635-1.184,1.241-2.372,1.823-3.564
		c0.109-0.223,0.215-0.447,0.324-0.67c0.418-0.866,0.828-1.733,1.227-2.602c0.334-0.726,0.65-1.454,0.966-2.183
		c0.419-0.966,0.826-1.933,1.216-2.904c0.391-0.97,0.767-1.942,1.128-2.917l0.566-1.479c0.399-1.127,0.77-2.257,1.121-3.39
		c0.351-1.133,0.683-2.269,1.001-3.406c0.237-0.847,0.457-1.694,0.673-2.544c0.236-0.932,0.458-1.865,0.666-2.8
		c0.207-0.935,0.403-1.871,0.583-2.81c0.162-0.837,0.323-1.674,0.463-2.513c0.331-1.985,0.591-3.978,0.799-5.977
		c0.099-0.964,0.182-1.929,0.255-2.896c0.047-0.646,0.087-1.294,0.121-1.941c0.003-0.041,0.004-0.081,0.007-0.122
		c0.033-0.645,0.059-1.29,0.079-1.936c0.013-0.457,0.026-0.913,0.034-1.371c0.01-0.569,0.076-1.132,0.076-1.702l5.687-37.13
		l60.578-395.491l84.227-549.924C1503.37,931.228,1397.78,935.3,1297.378,960.512z"/>
	<path style="fill:#02B3D9;" d="M680.875,1153.328c151.967,1.796,291.315-68.379,433.815-128.459
		c-11.845-0.056-23.679-0.313-35.474-1.294c-151.592-12.608-270.762-135.002-416.1-179.893
		c-56.16-17.346-116.486-25.17-175.065-18.391c-29.082,3.366-57.88,10.548-84.517,22.839c-25.725,11.871-51.855,27.449-70.351,49.16
		c-14.799,17.369-25.646,38.141-31.117,60.312c-3.648,14.785-4.813,30.46-1.998,45.493c0.097,0.519,0.245,1.02,0.354,1.534
		l-0.426-2.784c24.473,17.658,49.351,34.679,74.789,50.533"/>
	<path style="fill:#0083BD;" d="M1297.378,960.512c-9.03,2.271-18.003,4.728-26.95,7.3c-2.176,0.625-4.344,1.296-6.516,1.938
		c-6.069,1.792-12.127,3.645-18.176,5.552c-1.691,0.533-3.391,1.011-5.079,1.552c-0.003,0.001-0.004,0.001-0.006,0.001l-0.009,0.103
		c-2.951,34.574-5.989,70.155-9.091,106.44c-19.016,222.401-40.416,471.273-58.452,677.478c-0.938,10.718-1.866,21.323-2.785,31.801
		c-0.001,0.008-0.001,0.014-0.001,0.022c-5.892,67.412-11.383,129.649-16.255,184.136c-2.685,30.035-5.183,57.716-7.456,82.611
		c-1.45,15.885-2.809,30.638-4.066,44.142l0.012-0.002c121.722-19.491,216.654-56.791,259.484-102.746
		c-42.823,45.977-137.776,83.305-259.49,102.82l-0.012,0.002c-0.703,7.615-1.378,14.818-2.007,21.612
		c-0.267,2.882-0.526,5.692-0.774,8.427l-0.002,0.008l0.926-0.172c4.065-0.721,8.103-1.466,12.114-2.231
		c2.673-0.51,5.334-1.031,7.984-1.561c3.974-0.795,7.919-1.611,11.836-2.449c0.763-0.163,1.523-0.327,2.283-0.491
		c1.282-0.277,2.56-0.557,3.835-0.839c2.314-0.511,4.615-1.032,6.907-1.558c6.553-1.506,13.021-3.071,19.4-4.695
		c0.85-0.217,1.698-0.433,2.545-0.651c9.717-2.509,19.22-5.155,28.502-7.931c0.858-0.257,1.715-0.513,2.568-0.771
		c4.613-1.398,9.183-2.821,13.681-4.283l0.571-0.189c1.612-0.525,3.215-1.056,4.81-1.591s3.181-1.074,4.761-1.616
		c1.052-0.362,2.104-0.725,3.151-1.089c0.801-0.278,1.603-0.556,2.4-0.837c2.447-0.862,4.88-1.733,7.293-2.613
		c0.805-0.293,1.607-0.588,2.406-0.884c1.066-0.394,2.129-0.79,3.185-1.189l0.848-0.326c3.979-1.506,7.893-3.043,11.762-4.602
		c0.708-0.286,1.422-0.57,2.126-0.857c4.088-1.667,8.12-3.357,12.079-5.082l1.012-0.448c3.68-1.612,7.297-3.251,10.862-4.912
		c0.614-0.286,1.232-0.57,1.844-0.858c3.807-1.793,7.555-3.611,11.226-5.458l1.093-0.56c1.277-0.647,2.544-1.297,3.802-1.951
		c1.26-0.654,2.508-1.311,3.75-1.97c0.828-0.44,1.653-0.882,2.473-1.325l1.494-0.802c3.517-1.917,6.967-3.859,10.339-5.827
		l1.141-0.677c3.096-1.822,6.126-3.666,9.093-5.53l1.271-0.793c3.189-2.023,6.302-4.071,9.339-6.142l1.171-0.812
		c1.385-0.954,2.754-1.914,4.106-2.878c1.352-0.964,2.688-1.933,4.007-2.907l1.072-0.784c0.707-0.528,1.41-1.056,2.107-1.587
		c1.394-1.061,2.77-2.128,4.125-3.2c0.677-0.536,1.349-1.073,2.018-1.612l1.239-1.017c2.406-1.965,4.747-3.947,7.017-5.947
		l0.937-0.816c0.613-0.546,1.22-1.093,1.823-1.641c1.204-1.098,2.387-2.2,3.55-3.307c0.581-0.553,1.159-1.108,1.731-1.664
		l1.234-1.222c2.033-2.007,4.002-4.03,5.899-6.068l0.833-0.884c2.049-2.23,4.002-4.481,5.886-6.747
		c0.418-0.503,0.821-1.009,1.231-1.513c0.818-1.007,1.619-2.016,2.405-3.03c0.786-1.013,1.554-2.029,2.306-3.049l0.754-1.005
		c0.409-0.564,0.812-1.13,1.208-1.697c1.189-1.701,2.328-3.411,3.43-5.129c0.391-0.608,0.765-1.218,1.143-1.828
		c1.233-1.989,2.406-3.988,3.514-5.998l0.679-1.205c0.635-1.184,1.241-2.372,1.823-3.564c0.109-0.223,0.215-0.447,0.324-0.67
		c0.417-0.866,0.828-1.733,1.227-2.602c0.334-0.726,0.65-1.454,0.966-2.183c0.419-0.966,0.826-1.933,1.216-2.904
		c0.391-0.97,0.767-1.942,1.128-2.917l0.566-1.479c0.399-1.127,0.77-2.257,1.121-3.39c0.351-1.133,0.682-2.269,1.001-3.406
		c0.237-0.847,0.457-1.694,0.673-2.544c0.236-0.932,0.458-1.865,0.666-2.8c0.207-0.935,0.402-1.871,0.583-2.81
		c0.162-0.837,0.323-1.674,0.463-2.513c0.331-1.985,0.591-3.978,0.799-5.977c0.099-0.964,0.182-1.929,0.255-2.896
		c0.047-0.646,0.087-1.294,0.121-1.941c0.003-0.041,0.004-0.081,0.007-0.122c0.033-0.645,0.059-1.29,0.079-1.936
		c0.013-0.457,0.026-0.913,0.034-1.371c0.01-0.569,0.076-1.132,0.076-1.702l5.687-37.13l60.578-395.491l84.227-549.924
		C1503.37,931.228,1397.78,935.3,1297.378,960.512z"/>
	<path style="fill:#5694C3;" d="M732.839,1663.566l-51.964-510.238l-0.112-1.095c-0.006,0-0.011,0-0.017-0.001l0.108,1.051
		c-2.622,0-5.243-0.056-7.864-0.111c-1.01-0.029-2.02-0.061-3.027-0.096c-0.287-0.009-0.572-0.02-0.858-0.031
		c-0.786-0.029-1.57-0.059-2.354-0.092c-0.248-0.01-0.498-0.02-0.745-0.031c-0.957-0.041-1.915-0.085-2.869-0.132
		c-0.049-0.002-0.097-0.005-0.144-0.007c-1.089-0.054-2.176-0.11-3.261-0.172c-0.021-0.001-0.041-0.002-0.061-0.003
		c-1.031-0.058-2.059-0.12-3.089-0.184l-0.368-0.023c-0.983-0.063-1.964-0.128-2.944-0.196c-0.071-0.005-0.142-0.01-0.213-0.015
		c-3.255-0.229-6.499-0.49-9.729-0.783c-0.012-0.001-0.025-0.002-0.035-0.003c-98.477-8.945-186.068-47.737-267.904-98.608
		c-0.185-0.069-0.39-0.111-0.571-0.185l76.838,564.877c3.296,24.234,26.637,47.247,52.263,51.549l185.114,31.081
		C715.686,1704.595,735.359,1688.3,732.839,1663.566z"/>
	<path style="fill:#5694C3;" d="M502.971,1883.053c0.076-0.071,0.154-0.143,0.232-0.214c0.248-0.229,0.497-0.458,0.748-0.686
		c0.173-0.158,0.347-0.316,0.522-0.473c0.142-0.128,0.284-0.257,0.427-0.386c0.281-0.252,0.564-0.504,0.847-0.755l0.123-0.108
		c36.689-32.429,99.943-59.936,179.986-78.964c0.182-0.044,0.365-0.088,0.549-0.13c0.493-0.117,0.987-0.234,1.483-0.35
		c0.538-0.127,1.077-0.253,1.616-0.379l0.437-0.102c16.576-3.853,33.854-7.346,51.751-10.446c-0.003-0.006-0.007-0.011-0.01-0.017
		c-6.035-11.064-16.061-20.808-27.889-27.068c-5.873-3.109-12.19-5.359-18.684-6.483l-183.935-31.822
		c-25.467-4.406-43.413,11.217-40.212,34.748l12.629,92.838l1.896,13.938c1.132,8.318,4.87,16.558,10.372,23.9l0.004,0.005
		C498.093,1887.726,500.464,1885.377,502.971,1883.053z"/>
	<path style="fill:#02B3D9;" d="M1142.548,2103.586l-0.012,0.002c1.257-13.504,2.616-28.257,4.066-44.142
		c2.273-24.895,4.771-52.575,7.456-82.611c4.871-54.487,10.362-116.724,16.255-184.136
		c-66.255-12.537-141.653-19.629-221.639-19.629c-74.149,0-144.356,6.095-206.992,16.972c0.003,0.006,0.007,0.011,0.01,0.017
		c-17.897,3.1-35.175,6.593-51.751,10.446l-0.437,0.102c-0.539,0.126-1.079,0.252-1.616,0.379c-0.496,0.116-0.99,0.233-1.483,0.35
		c-0.184,0.043-0.367,0.086-0.549,0.13c-80.043,19.028-143.297,46.535-179.986,78.964l-0.123,0.108
		c-0.283,0.251-0.567,0.504-0.847,0.755c-0.143,0.129-0.286,0.258-0.427,0.386c-0.175,0.157-0.349,0.315-0.522,0.473
		c-0.25,0.228-0.5,0.457-0.748,0.686c-0.078,0.071-0.155,0.143-0.232,0.214c-2.507,2.324-4.878,4.673-7.11,7.044l-0.004-0.005
		c-16.46,17.465-25.389,36.188-25.389,55.663c0,10.61,2.653,20.997,7.727,31.079c40.534,80.538,235.757,141.605,470.479,141.605
		c69.008,0,134.603-5.279,193.856-14.779l0.012-0.002c121.714-19.515,216.667-56.843,259.49-102.82
		C1359.202,2046.795,1264.271,2084.094,1142.548,2103.586z"/>
	<path style="fill:#50BBDB;" d="M689.504,1800.607c-0.539,0.126-1.079,0.252-1.616,0.379c-0.496,0.116-0.99,0.233-1.483,0.35
		c-0.184,0.043-0.367,0.086-0.549,0.13c-80.043,19.028-143.297,46.535-179.986,78.964l-0.123,0.108
		c-0.283,0.251-0.567,0.504-0.847,0.755c-0.143,0.129-0.286,0.258-0.427,0.386c-0.175,0.157-0.349,0.315-0.522,0.473
		c-0.25,0.228-0.5,0.457-0.748,0.686c-0.078,0.071-0.155,0.143-0.232,0.214c-2.507,2.324-4.878,4.673-7.11,7.044
		c-0.008,0.009-0.016,0.017-0.024,0.025c2.266,3.004,4.831,5.857,7.632,8.505c0.009,0.009,0.02,0.02,0.03,0.029
		c0.244,0.23,0.489,0.46,0.736,0.687c0.185,0.17,0.371,0.338,0.558,0.506c0.124,0.111,0.245,0.224,0.37,0.333
		c8.774,7.78,19.63,13.55,30.947,15.71l179.887,34.249c25.881,4.964,45.014-9.761,42.67-32.91l-11.1-108.88
		c-0.191-1.943-0.522-3.879-0.983-5.803c-0.015-0.06-0.03-0.12-0.045-0.179c-0.07-0.289-0.143-0.579-0.22-0.868
		c-0.063-0.236-0.129-0.472-0.196-0.709l-0.09-0.321c-1.028-3.547-2.488-7.037-4.322-10.415c-0.005,0.001-0.012,0.002-0.017,0.003
		c-17.897,3.1-35.175,6.593-51.751,10.446L689.504,1800.607z"/>
	
		<ellipse transform="matrix(0.9871 -0.1602 0.1602 0.9871 -236.3025 146.9375)" style="fill:#02B3D9;" cx="793.243" cy="1539.158" rx="60.186" ry="60.185"/>
	<circle style="fill:#02B3D9;" cx="1106.621" cy="1663.831" r="37.027"/>
	<path style="fill:#02B3D9;" d="M847.512,1611.237c0,12.961,10.508,23.468,23.468,23.468c12.961,0,23.469-10.507,23.469-23.468
		c0-12.961-10.508-23.468-23.469-23.468C858.019,1587.769,847.512,1598.276,847.512,1611.237z"/>
	
		<ellipse transform="matrix(0.7071 -0.7071 0.7071 0.7071 -691.1413 993.2836)" style="fill:#02B3D9;" cx="853.429" cy="1330.923" rx="23.468" ry="23.468"/>
	<path style="fill:#009ED1;" d="M1372.935,1723.924c0-40.899-33.156-74.055-74.055-74.055c-40.9,0-74.055,33.156-74.055,74.055
		c0,21.915,9.521,41.606,24.65,55.165c13.106,11.747,30.421,18.891,49.406,18.891c2.419,0,4.81-0.118,7.17-0.345
		C1343.584,1794.03,1372.935,1762.405,1372.935,1723.924z"/>
	
		<ellipse transform="matrix(0.2527 -0.9675 0.9675 0.2527 -458.9667 2378.3535)" style="fill:#009ED1;" cx="1310.205" cy="1486.301" rx="80.995" ry="80.995"/>
	
		<ellipse transform="matrix(0.9782 -0.2075 0.2075 0.9782 -249.3682 331.3871)" style="fill:#009ED1;" cx="1454.984" cy="1354.391" rx="23.468" ry="23.468"/>
	<path style="fill:#009ED1;" d="M1154.058,1976.835c-2.685,30.035-5.183,57.716-7.456,82.611
		c-1.45,15.885-2.809,30.638-4.066,44.142l0.012-0.002c121.722-19.491,216.654-56.791,259.484-102.746
		c0.015-0.017,0.031-0.034,0.046-0.051c0.431-0.463,0.856-0.927,1.276-1.391c0.027-0.029,0.055-0.059,0.082-0.089
		c0.42-0.465,0.833-0.93,1.242-1.396c0.063-0.071,0.124-0.142,0.185-0.213c0.329-0.375,0.653-0.751,0.972-1.128
		c0.097-0.114,0.195-0.229,0.293-0.343c0.35-0.414,0.697-0.831,1.039-1.246c0.132-0.162,0.263-0.325,0.395-0.486
		c0.207-0.254,0.413-0.509,0.617-0.764c0.172-0.215,0.343-0.43,0.512-0.645c0.286-0.361,0.568-0.723,0.846-1.086
		c0.185-0.24,0.366-0.481,0.549-0.722c0.12-0.161,0.243-0.322,0.362-0.483c0.209-0.28,0.417-0.56,0.621-0.84
		c0.019-0.026,0.038-0.051,0.057-0.078c0.47-0.645,0.932-1.291,1.381-1.939c0.022-0.032,0.044-0.064,0.066-0.096
		c2.516-3.625,4.715-7.296,6.585-11.008c5.081-10.088,7.739-20.482,7.739-31.101c0-20.422-9.84-40.021-27.895-58.214
		c-0.124-0.124-0.248-0.249-0.372-0.373c-0.249-0.249-0.497-0.497-0.749-0.746c-0.247-0.243-0.496-0.485-0.745-0.728
		c-0.285-0.277-0.572-0.554-0.861-0.831c-0.255-0.244-0.509-0.486-0.767-0.73c-0.161-0.152-0.324-0.305-0.486-0.457
		c-0.398-0.372-0.797-0.743-1.201-1.114c-0.022-0.019-0.042-0.038-0.063-0.057c-0.466-0.427-0.938-0.853-1.412-1.279
		c-0.074-0.065-0.147-0.13-0.219-0.195c-0.441-0.393-0.886-0.786-1.336-1.179c-0.032-0.03-0.066-0.059-0.101-0.089
		c-27.421-23.903-69.282-45.108-121.651-62.193c-0.116-0.037-0.23-0.075-0.346-0.112c-0.918-0.299-1.839-0.597-2.762-0.893
		c-0.155-0.05-0.31-0.099-0.465-0.148c-0.69-0.22-1.381-0.44-2.075-0.659c-0.463-0.146-0.929-0.292-1.395-0.438
		c-0.297-0.093-0.594-0.186-0.892-0.279c-27.679-8.639-58.123-16.152-90.791-22.342c-0.001,0.008-0.001,0.014-0.001,0.022
		C1164.42,1860.111,1158.93,1922.348,1154.058,1976.835z"/>
	<path style="fill:#E6D3C6;" d="M1544.744,493.314c-0.003-0.002-0.006-0.003-0.01-0.005
		c-130.428-75.178-348.77-124.444-596.085-124.444c-247.278,0-465.615,49.268-596.038,124.449
		c-42.67,24.596-75.929,51.966-97.717,81.292c88.312,118.989,365.476,205.849,693.78,205.849c111.372,0,216.865-9.996,311.098-27.85
		c183.547-34.775,324.337-99.373,382.691-177.997C1620.676,545.281,1587.416,517.911,1544.744,493.314z"/>
	<path style="fill:#50BBDB;" d="M370.891,1023.654l3.898,28.727l0.008,0.055c82.004,51.05,169.781,90.004,268.496,98.969
		c0.011,0.001,0.023,0.002,0.035,0.003c3.23,0.293,6.474,0.554,9.729,0.783c0.071,0.005,0.142,0.01,0.213,0.015
		c0.98,0.068,1.961,0.134,2.944,0.196l0.368,0.023c1.03,0.064,2.058,0.126,3.089,0.184c0.021,0.001,0.041,0.002,0.061,0.003
		c1.085,0.061,2.172,0.118,3.261,0.172c0.048,0.002,0.095,0.004,0.144,0.007c0.954,0.047,1.912,0.09,2.869,0.132
		c0.248,0.011,0.497,0.021,0.745,0.031c0.784,0.032,1.569,0.063,2.354,0.092c0.286,0.011,0.571,0.021,0.858,0.031
		c1.007,0.035,2.017,0.068,3.027,0.096c2.622,0.056,5.243,0.111,7.864,0.111l-9.873-96.999c-0.451-4.474-1.454-8.877-2.935-13.134
		l-0.033-0.095c-0.013-0.04-0.029-0.079-0.044-0.118c-4.208-11.951-12.18-22.743-22.257-30.726
		c-7.598-6.017-16.388-10.437-25.662-12.554c-2.189-0.5-4.403-0.871-6.635-1.105l-199.631-20.75
		c-22.574-2.326-39.477,11.009-42.791,31.314C370.255,1013.648,370.189,1018.525,370.891,1023.654z"/>
</g>
</svg>
